<svg xmlns="http://www.w3.org/2000/svg" width="58" height="58" fill="none"><path fill="#FC5050" d="M34.4398 9.06161c-3.3543.00002-6.6048 1.16309-9.1977 3.29109-2.593 2.1279-4.3678 5.0891-5.0222 8.379-.6544 3.2899-.1478 6.7049 1.4334 9.6631 1.5813 2.9583 4.1393 5.2767 7.2383 6.5603 3.099 1.2837 6.5472 1.4531 9.7571.4793 3.2099-.9737 5.9828-3.0303 7.8464-5.8193 1.8635-2.789 2.7023-6.1379 2.3736-9.4761-.3288-3.3382-1.8049-6.459-4.1768-8.8309-1.3431-1.3506-2.9409-2.4213-4.7006-3.1503-1.7598-.72888-3.6467-1.10148-5.5515-1.09619Zm0-9.06161C47.4523 0 58 10.5477 58 23.5602c0 13.0124-10.5477 23.5602-23.5602 23.5602-13.0124 0-23.5602-10.5478-23.5602-23.5602C10.8796 10.5477 21.4274 0 34.4398 0Z"/><path fill="#FC5050" d="M.788774 50.1448 12.0818 38.8517c.2531-.2522.5535-.452.8839-.5881.3304-.1361.6844-.2056 1.0417-.2048h1.8463l4.0777 4.0778v1.8463c.0009.3573-.0687.7113-.2047 1.0417-.1361.3304-.3359.6308-.5882.8839l-11.293 11.293c-.25159.2531-.55073.4539-.88023.591-.32949.137-.68283.2076-1.0397.2076-.35686 0-.7102-.0706-1.03969-.2076-.3295-.1371-.62865-.3379-.88024-.591L.800102 53.996c-.510317-.5103-.79796386-1.2017-.80008674-1.9233-.00212097-.7216.28145174-1.4147.78875874-1.9279Z" opacity=".6"/></svg>